<?xml version="1.0" encoding="UTF-8" standalone="no"?>
<!-- Created with Inkscape (http://www.inkscape.org/) -->

<svg
   xmlns:osb="http://www.openswatchbook.org/uri/2009/osb"
   xmlns:dc="http://purl.org/dc/elements/1.1/"
   xmlns:cc="http://creativecommons.org/ns#"
   xmlns:rdf="http://www.w3.org/1999/02/22-rdf-syntax-ns#"
   xmlns:svg="http://www.w3.org/2000/svg"
   xmlns="http://www.w3.org/2000/svg"
   xmlns:sodipodi="http://sodipodi.sourceforge.net/DTD/sodipodi-0.dtd"
   xmlns:inkscape="http://www.inkscape.org/namespaces/inkscape"
   width="292.85559mm"
   height="207.67096mm"
   viewBox="0 0 292.85559 207.67096"
   version="1.1"
   id="svg8"
   inkscape:version="0.92.2 (5c3e80d, 2017-08-06)"
   sodipodi:docname="logo.svg">
  <defs
     id="defs2">
    <linearGradient
       id="linearGradient6078"
       osb:paint="solid">
      <stop
         style="stop-color:#2acccc;stop-opacity:1;"
         offset="0"
         id="stop6076" />
    </linearGradient>
  </defs>
  <sodipodi:namedview
     id="base"
     pagecolor="#ffffff"
     bordercolor="#666666"
     borderopacity="1.0"
     inkscape:pageopacity="0.0"
     inkscape:pageshadow="2"
     inkscape:zoom="0.35"
     inkscape:cx="165.69844"
     inkscape:cy="656.86653"
     inkscape:document-units="mm"
     inkscape:current-layer="layer1"
     showgrid="false"
     inkscape:window-width="1366"
     inkscape:window-height="705"
     inkscape:window-x="-8"
     inkscape:window-y="-8"
     inkscape:window-maximized="1" />
  <metadata
     id="metadata5">
    <rdf:RDF>
      <cc:Work
         rdf:about="">
        <dc:format>image/svg+xml</dc:format>
        <dc:type
           rdf:resource="http://purl.org/dc/dcmitype/StillImage" />
        <dc:title />
      </cc:Work>
    </rdf:RDF>
  </metadata>
  <g
     inkscape:label="Capa 1"
     inkscape:groupmode="layer"
     id="layer1"
     transform="translate(40.748784,-45.332913)">
    <flowRoot
       xml:space="preserve"
       id="flowRoot6092"
       style="font-style:normal;font-weight:normal;font-size:40px;line-height:1.25;font-family:sans-serif;letter-spacing:0px;word-spacing:0px;fill:#000000;fill-opacity:1;stroke:none"><flowRegion
         id="flowRegion6094"><rect
           id="rect6096"
           width="438.14648"
           height="170.49382"
           x="223.50345"
           y="251.99016" /></flowRegion><flowPara
         id="flowPara6098" /></flowRoot>    <g
       id="g230"
       transform="translate(0.75595238)">
      <g
         transform="rotate(89.972939,105.67901,149.16839)"
         id="g180">
        <rect
           style="fill:#b3b3b3;fill-opacity:1;stroke-width:0.10125425;stroke-miterlimit:4;stroke-dasharray:none"
           id="rect30"
           width="204.34079"
           height="289.56567"
           x="3.4317095"
           y="4.4400082"
           transform="rotate(-0.02953543)" />
        <path
           style="fill:none;stroke:#000000;stroke-width:3.19192314;stroke-linecap:butt;stroke-linejoin:miter;stroke-miterlimit:4;stroke-dasharray:none;stroke-opacity:1"
           d="M 3.5086179,4.3855519 H 207.84941 V 293.95123 H 3.5086179 Z"
           id="path51"
           inkscape:connector-curvature="0" />
      </g>
      <g
         inkscape:transform-center-y="-7.0949522"
         inkscape:transform-center-x="-2.2417297"
         id="g4609"
         transform="matrix(2.33436,0.46365421,-0.70025668,2.1318651,-929.19919,124.11146)"
         style="fill:#1a1a1a;stroke-width:0.71956801;stroke-miterlimit:4;stroke-dasharray:none">
        <g
           transform="matrix(1.0502395,0.03476613,0.05346078,1.2762812,264.11158,-163.47346)"
           id="g209">
          <path
             style="fill:none;stroke:#000000;stroke-width:0.71956801;stroke-linecap:butt;stroke-linejoin:miter;stroke-miterlimit:4;stroke-dasharray:none;stroke-opacity:1"
             d="m 140.70075,68.198894 c -1.00824,9.898198 -1.00824,9.898198 -1.00824,9.898198 l 11.69555,-0.860707 7.56179,-19.904003 z"
             id="path3703"
             inkscape:connector-curvature="0" />
          <path
             style="fill:none;stroke:#000000;stroke-width:0.71956801;stroke-linecap:butt;stroke-linejoin:miter;stroke-miterlimit:4;stroke-dasharray:none;stroke-opacity:1"
             d="m 140.70075,68.198894 -2.82307,-21.948192 21.27381,-14.309362 -7.99506,15.482406 0.5341,14.212206 z"
             id="path3707"
             inkscape:connector-curvature="0"
             sodipodi:nodetypes="cccccc" />
          <path
             style="fill:none;stroke:#000000;stroke-width:0.71956801;stroke-linecap:butt;stroke-linejoin:miter;stroke-miterlimit:4;stroke-dasharray:none;stroke-opacity:1"
             d="m 151.38806,77.236385 20.56805,3.012495 13.40957,-22.701314 -15.65079,8.605459 -13.9914,-0.415232 z"
             id="path3707-7"
             inkscape:connector-curvature="0"
             sodipodi:nodetypes="cccccc" />
          <path
             style="fill:none;stroke:#000000;stroke-width:0.71956801;stroke-linecap:butt;stroke-linejoin:miter;stroke-miterlimit:4;stroke-dasharray:none;stroke-opacity:1"
             d="M 140.70075,68.198893 123.11391,96.584718 151.38806,77.236385"
             id="path3724"
             inkscape:connector-curvature="0" />
          <path
             style="fill:#0000ff;stroke-width:0.71956801;stroke-miterlimit:4;stroke-dasharray:none"
             d="m 139.85974,77.768542 c -0.0125,-0.756746 0.94499,-9.33974 1.05639,-9.469426 0.2006,-0.233544 17.60755,-10.596065 17.67427,-10.521661 0.03,0.03348 -0.99292,2.79951 -2.27321,6.146729 -1.28029,3.347216 -2.90841,7.63404 -3.61805,9.526273 -0.70964,1.892233 -1.3314,3.492878 -1.38169,3.556986 -0.0746,0.09512 -9.91342,0.921733 -11.10852,0.933283 -0.19318,0.002 -0.34757,-0.07426 -0.34919,-0.172184 z"
             id="path3726"
             inkscape:connector-curvature="0" />
          <path
             style="fill:#ffffff;stroke-width:0.71956801;stroke-miterlimit:4;stroke-dasharray:none"
             d="m 123.9179,95.625757 c 0.0798,-0.228023 16.51782,-26.700451 16.55434,-26.659728 0.0202,0.02247 -0.16978,2.075038 -0.42205,4.561258 -0.25228,2.486221 -0.42419,4.558878 -0.38202,4.605904 0.0422,0.04703 2.55997,-0.101152 5.59511,-0.32929 3.03515,-0.228135 5.52846,-0.407161 5.5407,-0.397831 0.0417,0.03173 -26.75235,18.33965 -26.84043,18.33965 -0.0482,0 -0.0687,-0.05398 -0.0456,-0.119963 z"
             id="path3728"
             inkscape:connector-curvature="0" />
          <path
             style="fill:#ffffff;stroke-width:0.71956801;stroke-miterlimit:4;stroke-dasharray:none"
             d="m 123.89691,95.689877 c 0,-0.04724 3.49413,-5.725436 7.76472,-12.618212 9.04477,-14.598338 8.76712,-14.154128 8.81416,-14.101673 0.02,0.02231 -0.16915,2.075728 -0.42036,4.563147 -0.2512,2.487417 -0.42636,4.556451 -0.38923,4.597854 0.0648,0.07221 9.5078,-0.556104 10.67387,-0.710212 0.50632,-0.06692 0.53938,-0.05465 0.31481,0.116757 -0.51068,0.389784 -26.43148,18.098515 -26.5917,18.16708 -0.0914,0.03913 -0.16627,0.0325 -0.16627,-0.01475 z"
             id="path3730"
             inkscape:connector-curvature="0" />
          <path
             style="fill:#ffffff;stroke-width:0.71956801;stroke-miterlimit:4;stroke-dasharray:none"
             d="m 161.73713,78.640772 c -5.54067,-0.811321 -10.0948,-1.493778 -10.12029,-1.516571 -0.0326,-0.02911 4.042,-10.949024 4.19698,-11.247991 0.008,-0.016 3.14253,0.06899 6.96498,0.188883 l 6.9499,0.217979 7.57436,-4.160804 c 4.16589,-2.28844 7.58898,-4.1428 7.60687,-4.120797 0.0384,0.04729 -12.83264,21.852691 -12.99075,22.008139 -0.0595,0.05846 -4.64139,-0.557517 -10.18205,-1.368838 z"
             id="path3732"
             inkscape:connector-curvature="0" />
          <path
             style="fill:#ffffff;stroke-width:0.71956801;stroke-miterlimit:4;stroke-dasharray:none"
             d="m 140.77075,67.891997 c 0,-0.02721 -0.62434,-4.872859 -1.38743,-10.768101 -0.7631,-5.895246 -1.34225,-10.769022 -1.28702,-10.830617 0.15821,-0.176427 20.58406,-13.895029 20.62113,-13.849755 0.0182,0.02228 -1.699,3.389664 -3.8161,7.483067 l -3.84928,7.44255 0.26555,7.089309 c 0.14605,3.899117 0.25523,7.098557 0.24261,7.109863 -0.095,0.08517 -10.67904,6.373162 -10.72734,6.373162 -0.0342,0 -0.0621,-0.02227 -0.0621,-0.04948 z"
             id="path3734"
             inkscape:connector-curvature="0" />
          <path
             style="fill:#4d4d4d;stroke-width:0.71956801;stroke-miterlimit:4;stroke-dasharray:none"
             d="m 139.9332,77.194116 c 0.3206,-3.583746 0.93572,-8.695375 1.06458,-8.846597 0.13695,-0.160726 0.80329,-0.573096 4.81914,-2.982356 7.28205,-4.368777 12.60957,-7.497158 12.66401,-7.436448 0.0414,0.04616 -2.97587,8.066042 -6.81653,18.118354 -0.20288,0.531013 -0.3831,0.859782 -0.50011,0.912356 -0.27408,0.123135 -7.46586,0.748687 -9.83364,0.855342 l -1.45885,0.06571 z"
             id="path4558"
             inkscape:connector-curvature="0" />
          <path
             style="fill:#0000ff;stroke:#000000;stroke-width:0.71956801;stroke-linecap:butt;stroke-linejoin:miter;stroke-miterlimit:4;stroke-dasharray:none;stroke-opacity:1"
             d="m 138.59394,53.277197 -4.8047,9.191641 10.26448,0.583656 20.04209,-22.922831 z"
             id="path4562"
             inkscape:connector-curvature="0"
             sodipodi:nodetypes="ccccc" />
          <path
             style="fill:#0000ff;stroke:#000000;stroke-width:0.71956801;stroke-linecap:butt;stroke-linejoin:miter;stroke-miterlimit:4;stroke-dasharray:none;stroke-opacity:1"
             d="m 155.28077,73.222609 0.74044,8.011288 8.4107,-4.775436 12.75467,-26.278706 z"
             id="path4562-7"
             inkscape:connector-curvature="0"
             sodipodi:nodetypes="ccccc" />
        </g>
      </g>
      <text
         inkscape:transform-center-y="-2.9367787"
         inkscape:transform-center-x="-2.0502911"
         transform="matrix(0.74249719,-0.11398029,-0.24135575,1.3838568,0,0)"
         id="text3701"
         y="168.88147"
         x="27.95048"
         style="font-style:normal;font-weight:normal;font-size:121.43190002px;line-height:1.25;font-family:sans-serif;letter-spacing:0px;word-spacing:0px;fill:#1a1a1a;fill-opacity:1;stroke:none;stroke-width:0.33379263;stroke-miterlimit:4;stroke-dasharray:none"
         xml:space="preserve"><tspan
           style="fill:#1a1a1a;fill-opacity:1;stroke-width:0.33379263;stroke-miterlimit:4;stroke-dasharray:none"
           y="168.88147"
           x="27.95048"
           id="tspan3699"
           sodipodi:role="line">HRAT</tspan></text>
    </g>
  </g>
</svg>
